<?xml version="1.0" encoding="utf-8"?>
<!-- Generator: Adobe Illustrator 26.5.0, SVG Export Plug-In . SVG Version: 6.00 Build 0)  -->
<svg version="1.1" id="Layer_1" xmlns="http://www.w3.org/2000/svg" xmlns:xlink="http://www.w3.org/1999/xlink" x="0px" y="0px"
	 viewBox="0 0 1000 1000" style="enable-background:new 0 0 1000 1000;" xml:space="preserve">
<style type="text/css">
	.st0{fill:#DEE21E;}
	.st1{fill:#29AAE2;}
</style>
<path class="st0" d="M776.1,527.61c-54.87-7.48,2.49-44.9,2.49-44.9l114.9-32.83c-1.79-56.7-23.1-114.66-70-166.71
	c-204.53-226.97-613.58,57.37-613.58,57.37l-89.79-219.49l-84.8,346.7l137.18-82.31c0,0,39.91,179.58,306.79,321.75
	c177.45,94.53,361.52-23.77,404.83-180.38C852.42,529.58,807.96,531.96,776.1,527.61z"/>
<circle cx="617.16" cy="502.35" r="26.19"/>
<path class="st1" d="M720.22,1110.41c-22.61-2.74-1.37-10.28-1.37-10.28l35.77-6.28c1.94-27.17-8.88-58.4-42.84-92.68
	c-120.22-121.35-332.58,31.46-332.58,31.46L307.29,945l-17.98,253.93l96.63-87.64c98.88,164.05,276.4,94.38,276.4,94.38
	s72.13-35.35,89-93.6L720.22,1110.41z"/>
<circle cx="657.46" cy="1063.28" r="11.24"/>
</svg>
