<?xml version="1.0" encoding="utf-8"?>
<!-- Generator: Adobe Illustrator 26.5.0, SVG Export Plug-In . SVG Version: 6.00 Build 0)  -->
<svg version="1.1" id="Layer_1" xmlns="http://www.w3.org/2000/svg" xmlns:xlink="http://www.w3.org/1999/xlink" x="0px" y="0px"
	 viewBox="0 0 1920 1080" style="enable-background:new 0 0 1920 1080;" xml:space="preserve">
<style type="text/css">
	.st0{fill:#0098D4;}
	.st1{fill:#6ACFF6;}
	.st2{fill:#00A3D0;}
	.st3{fill:#44C8F5;}
	.st4{opacity:0.7;fill:#0098CE;}
</style>
<rect x="-413.43" y="-238.13" class="st0" width="1433.35" height="924.64"/>
<path class="st1" d="M-356.64-14.91c0,0,205.77,33.7,305.1,85.15s125.94,156.1,312.2,39.02C445.25-6.77,405.09-117.57,791.14,53.13
	c3.48,1.54,7,3.1,10.55,4.69c397.34,177.39,3.55,486.04,3.55,486.04l-1129.95,56.76L-356.64-14.91z"/>
<path class="st2" d="M-353.09,72.01c0,0,76.28-39.02,186.26,10.64s136.59,157.87,299.78,173.84s282.04-90.47,282.04-90.47
	s195.12-163.2,407.99-65.63l58.54,509.1L-361.96,554.5L-353.09,72.01z"/>
<path class="st3" d="M-367.28,199.73c0,0,172.06-53.22,305.1,31.93s367.19,65.63,367.19,65.63s200.45-21.29,267.85-72.73
	s273.17-86.92,273.17-86.92l-10.64,340.58l-431.05,65.63l-798.24-14.19L-367.28,199.73z"/>
<rect x="-249.36" y="-86.98" class="st4" width="1268.77" height="754.08"/>
</svg>
